<svg width="70" height="69" viewBox="0 0 70 69" fill="none" xmlns="http://www.w3.org/2000/svg">
<path d="M41.3368 0C34.0062 0 27.3109 2.75813 22.2371 7.28622C23.3626 9.0699 24.0019 11.1451 24.062 13.2872L24.0622 13.2934L24.0624 13.2997C24.088 14.2649 24.1459 15.2304 24.2287 16.1944C28.0773 10.9235 34.3104 7.48814 41.3368 7.48814C52.9993 7.48814 62.4876 16.9452 62.4876 28.5695C62.4876 40.0713 53.1971 49.445 41.7036 49.6416C42.7531 50.5158 43.8367 51.349 44.9532 52.1313L44.9581 52.135L44.9634 52.1384C46.4835 53.2072 47.7216 54.6086 48.5904 56.2112C60.8946 53.001 70.0001 41.8259 70.0001 28.5695C70.0005 12.8162 57.1423 0 41.3368 0Z" fill="#FFE146"/>
<path d="M40.6336 58.2574C37.359 55.652 35.316 53.9172 32.3923 51.2175C31.532 50.4234 30.4807 49.9286 29.4011 49.9286C28.575 49.9286 27.759 50.1909 27.0874 50.7404C26.3943 51.322 25.701 51.9034 25.0077 52.4849C19.3732 45.8108 15.1894 38.034 12.7299 29.6632C13.5994 29.4097 14.4691 29.1558 15.3386 28.9023C17.2549 28.3173 18.1564 26.2784 17.8752 24.2343C17.2634 19.7854 16.9311 17.5751 16.5524 13.4968C16.3584 11.4064 14.9625 9.59052 12.9618 9.48195C12.6498 9.45175 12.338 9.43677 12.0287 9.43677C4.58851 9.43677 -1.88956 18.0322 0.50679 28.5474C3.48863 41.5699 9.94391 53.5686 19.1764 63.2504C22.9584 67.2081 27.5916 69.0001 31.7759 69.0001C36.1903 69.0001 40.1054 67.0074 42.0016 63.4603C43.0182 61.7392 42.28 59.5674 40.6336 58.2574Z" fill="#FFE146"/>
<path d="M32.717 29.0983C30.7356 30.9307 29.4393 32.3715 28.7545 33.5021C28.2712 34.2996 27.9185 35.1428 27.706 36.0081C27.6061 36.4154 27.6979 36.8384 27.9581 37.1685C28.218 37.4983 28.6083 37.6874 29.0289 37.6874H38.4847C39.6431 37.6874 40.5858 36.748 40.5858 35.5932C40.5858 34.4386 39.6431 33.4992 38.4847 33.4992H34.2147C34.2493 33.4581 34.2852 33.4173 34.3218 33.3761C34.6008 33.0631 35.2838 32.4092 36.352 31.4328C37.4722 30.4082 38.2284 29.641 38.664 29.0871C39.3204 28.2545 39.8086 27.4415 40.115 26.6712C40.4272 25.8861 40.5858 25.0492 40.5858 24.1832C40.5858 22.6298 40.0212 21.3112 38.9081 20.2632C37.8022 19.2239 36.2799 18.6973 34.3827 18.6973C32.6587 18.6973 31.1945 19.1471 30.0309 20.0343C29.3289 20.5697 28.7885 21.3118 28.4245 22.2404C28.1786 22.8676 28.2422 23.5853 28.5947 24.1597C28.9473 24.7342 29.5595 25.1174 30.2319 25.1843C30.3067 25.1918 30.3814 25.1955 30.4549 25.1955C31.4013 25.1955 32.2453 24.5956 32.5552 23.7031C32.6523 23.4233 32.7808 23.2008 32.9376 23.0416C33.2678 22.7064 33.7123 22.5432 34.297 22.5432C34.8912 22.5432 35.3353 22.6974 35.6538 23.0147C35.9716 23.3314 36.1261 23.7935 36.1261 24.4275C36.1261 25.0162 35.9151 25.6303 35.4988 26.2531C35.2756 26.5791 34.6087 27.3416 32.717 29.0983Z" fill="#FFE146"/>
<path d="M51.6488 18.6973H50.0694C49.6194 18.6973 49.1992 18.9184 48.9452 19.2889L41.6408 29.9465C41.4276 30.2574 41.3149 30.6211 41.3149 30.9979V32.7247C41.3149 33.4729 41.9257 34.0816 42.6763 34.0816H48.6728V35.5261C48.6728 36.718 49.6456 37.6876 50.8415 37.6876C52.0373 37.6876 53.0102 36.718 53.0102 35.5261V34.0816H53.2269C54.338 34.0816 55.2419 33.1807 55.2419 32.0732C55.2419 30.9657 54.338 30.0646 53.2269 30.0646H53.0102V20.0541C53.0102 19.3061 52.3994 18.6973 51.6488 18.6973ZM48.673 30.0646H45.9814L48.673 26.0764V30.0646Z" fill="#FFE146"/>
</svg>
