<svg width="26" height="25" viewBox="0 0 26 25" fill="none" xmlns="http://www.w3.org/2000/svg">
<path d="M6.38282 1C4.75235 1 2.3666 2.75155 1.76426 3.91926C0.902922 5.58907 1.03756 6.24298 1.58301 8.00622C2.30525 10.3416 4.44417 14.4811 7.43649 17.3478C11.702 21.4348 15.6899 23.1863 17.4639 23.7702C19.2378 24.354 21.1695 23.7702 22.3647 22.6025C23.5599 21.4348 24.7552 20.2671 23.4353 18.5155C22.5003 17.2743 21.134 15.8392 19.4616 15.0124C17.9403 14.2604 17.0274 14.5337 16.4923 15.5963C16.1959 16.1836 16.0967 17.3081 15.8806 17.9317C15.6074 18.7187 14.5418 18.5155 13.3608 17.9317C12.2305 17.3724 9.38228 15.0124 7.039 11.5093C5.58616 9.33856 7.93651 9.32572 9.43419 8.59007C10.6247 8.00621 11.0032 6.66336 10.0554 5.08696C8.3003 2.1677 7.71684 1 6.38282 1Z" stroke="#232222" stroke-width="2"/>
</svg>
